<svg width="70" height="50" viewBox="0 0 70 50" fill="none" xmlns="http://www.w3.org/2000/svg">
<path fill-rule="evenodd" clip-rule="evenodd" d="M62.7615 1C64.799 1 66.6084 1.89471 67.7469 3.27861L34.6815 28.6804L1.91071 3.73988C3.00641 2.09675 4.98264 1 7.23853 1H62.7615ZM1 43.2857V8.24734L24.5139 26.1429L1.04847 44.0015C1.01649 43.767 1 43.5281 1 43.2857ZM3.15049 47.6023C4.24536 48.473 5.67475 49 7.23853 49H62.7615C64.1055 49 65.3504 48.6107 66.3688 47.9484L41.3825 28.7532L36.8892 32.205C35.6185 33.1813 33.7672 33.1852 32.4915 32.2143L27.9306 28.7431L3.15049 47.6023ZM44.7803 26.1429L68.8295 44.6181C68.941 44.1906 69 43.7445 69 43.2857V7.53658L44.7803 26.1429Z" fill="#C94128"/>
</svg>
