<svg width="50" height="50" viewBox="0 0 50 50" fill="none" xmlns="http://www.w3.org/2000/svg">
<path d="M45.4567 1H4.54333C3.60358 1 2.70232 1.37331 2.03782 2.03782C1.37331 2.70232 1 3.60358 1 4.54333V45.4567C1 46.3964 1.37331 47.2977 2.03782 47.9622C2.70232 48.6267 3.60358 49 4.54333 49H45.4567C46.3964 49 47.2977 48.6267 47.9622 47.9622C48.6267 47.2977 49 46.3964 49 45.4567V4.54333C49 3.60358 48.6267 2.70232 47.9622 2.03782C47.2977 1.37331 46.3964 1 45.4567 1ZM15.3067 41.89H8.09V18.9667H15.3067V41.89ZM11.6933 15.79C10.8747 15.7854 10.0758 15.5384 9.39747 15.0802C8.71911 14.622 8.19168 13.9731 7.88175 13.2154C7.57183 12.4577 7.4933 11.6252 7.65606 10.8229C7.81883 10.0206 8.2156 9.28455 8.79631 8.70756C9.37702 8.13057 10.1156 7.73853 10.9189 7.58092C11.7222 7.42331 12.5542 7.50719 13.3099 7.82197C14.0656 8.13675 14.7111 8.66833 15.1649 9.34962C15.6188 10.0309 15.8606 10.8314 15.86 11.65C15.8677 12.1981 15.765 12.7421 15.558 13.2496C15.351 13.7571 15.044 14.2178 14.6551 14.6041C14.2663 14.9905 13.8037 15.2946 13.2948 15.4983C12.786 15.702 12.2413 15.8012 11.6933 15.79ZM41.9067 41.91H34.6933V29.3867C34.6933 25.6933 33.1233 24.5533 31.0967 24.5533C28.9567 24.5533 26.8567 26.1667 26.8567 29.48V41.91H19.64V18.9833H26.58V22.16H26.6733C27.37 20.75 29.81 18.34 33.5333 18.34C37.56 18.34 41.91 20.73 41.91 27.73L41.9067 41.91Z" fill="#4B827D"/>
</svg>
